<svg width="16" height="42" viewBox="0 0 16 42" fill="none" xmlns="http://www.w3.org/2000/svg">
<path fill-rule="evenodd" clip-rule="evenodd" d="M7.9997 -3.21889e-07C8.55199 -3.4603e-07 8.9997 0.447715 8.9997 1L8.99971 38.5858L13.6566 33.9289C14.0471 33.5384 14.6802 33.5384 15.0708 33.9289C15.4613 34.3195 15.4613 34.9526 15.0708 35.3431L8.70681 41.7071C8.31629 42.0976 7.68312 42.0976 7.2926 41.7071L0.928637 35.3431C0.538113 34.9526 0.538113 34.3195 0.928637 33.9289C1.31916 33.5384 1.95233 33.5384 2.34285 33.9289L6.99971 38.5858L6.9997 1C6.9997 0.447715 7.44742 -2.97748e-07 7.9997 -3.21889e-07Z" fill="black"/>
</svg>
