<svg width="28" height="28" viewBox="0 0 28 28" fill="none" xmlns="http://www.w3.org/2000/svg">
<path d="M11.2778 12.8653C12.8236 12.1264 13.6306 11.0083 13.6306 9.26806C13.6306 5.83611 11.0736 5 8.12292 5H0V22.2278H8.35139C11.4819 22.2278 14.4229 20.7257 14.4229 17.2257C14.4229 15.0625 13.3972 13.4632 11.2778 12.8653ZM3.78681 7.94097H7.34028C8.70625 7.94097 9.93611 8.325 9.93611 9.90972C9.93611 11.3729 8.97847 11.9611 7.62708 11.9611H3.78681V7.94097ZM7.83611 19.3014H3.78681V14.5569H7.91389C9.58125 14.5569 10.6361 15.2521 10.6361 17.0167C10.6361 18.757 9.37708 19.3014 7.83611 19.3014ZM25.2632 7.6007H18.2778V5.90417H25.2632V7.6007ZM28 16.1708C28 12.4813 25.8417 9.40417 21.9285 9.40417C18.1271 9.40417 15.5458 12.2625 15.5458 16.0056C15.5458 19.8896 17.991 22.5535 21.9285 22.5535C24.9083 22.5535 26.8382 21.2118 27.7667 18.3583H24.7431C24.4174 19.4229 23.0757 19.9868 22.0354 19.9868C20.0278 19.9868 18.9729 18.8104 18.9729 16.8125H27.9708C27.9854 16.6083 28 16.3896 28 16.1708ZM18.9778 14.6542C19.0896 13.016 20.1785 11.9903 21.8215 11.9903C23.5424 11.9903 24.4076 13.0014 24.5535 14.6542H18.9778Z" fill="white"/>
</svg>
