<svg width="28" height="28" viewBox="0 0 28 28" fill="none" xmlns="http://www.w3.org/2000/svg">
<g clip-path="url(#clip0_1402_6712)">
<path d="M27.4695 8.73364L14.6727 0.202394C14.2359 -0.0663954 13.7698 -0.0688564 13.329 0.202394L0.532109 8.73364C0.203109 8.95239 0 9.34068 0 9.68521V18.1672C0 18.5579 0.203109 18.9487 0.531289 19.1675L13.3282 27.6987C13.765 27.9675 14.2311 27.97 14.6718 27.6987L27.4687 19.1675C27.7968 18.9488 28 18.5583 28 18.1672V9.68521C27.9999 9.29463 27.7968 8.90372 27.4687 8.68552L27.4695 8.73364ZM15.2031 3.45247L24.6258 9.73606L20.4225 12.5486L15.2031 9.06177V3.45247ZM12.7969 3.45247V9.06341L7.57805 12.5481L3.37477 9.73552L12.7969 3.45247ZM2.40625 11.9821L5.42172 13.9979L2.40625 16.0125V11.9815V11.9821ZM12.7969 24.5438L3.37477 18.2165L7.57805 15.4039L12.7969 18.9383V24.5493V24.5438ZM14 16.8383L9.75023 13.9946L14 11.1508L18.2498 13.9946L14 16.8383ZM15.2031 24.5438V18.9383L20.422 15.4536L24.6252 18.2662L15.2031 24.5438ZM25.5938 16.0125L22.5783 13.9968L25.5938 11.9821V16.0131V16.0125Z" fill="white"/>
</g>
<defs>
<clipPath id="clip0_1402_6712">
<rect width="28" height="28" fill="white"/>
</clipPath>
</defs>
</svg>
