<svg width="28" height="28" viewBox="0 0 28 28" fill="none" xmlns="http://www.w3.org/2000/svg">
<path d="M14 0.4375C6.52422 0.4375 0.4375 6.52422 0.4375 14C0.4375 21.4758 6.52422 27.5625 14 27.5625C21.4758 27.5625 27.5625 21.4758 27.5625 14C27.5625 6.52422 21.4758 0.4375 14 0.4375ZM22.9195 6.69375C24.5328 8.66523 25.5101 11.1759 25.5352 13.8633C25.1533 13.7825 21.3232 13.0058 17.4688 13.4904C17.1543 12.7226 16.8574 12.0472 16.4505 11.2149C20.7337 9.46597 22.674 6.97769 22.9201 6.64738L22.9195 6.69375ZM21.6781 5.35227C21.4698 5.64906 19.7258 7.99312 15.6078 9.53695C13.7096 6.04898 11.6058 3.18227 11.2853 2.7557C14.9592 1.87031 18.783 2.82516 21.6814 5.35281L21.6781 5.35227ZM9.07266 3.53391C9.37809 3.95276 11.4483 6.82172 13.3678 10.2331C7.94883 11.672 3.17406 11.6512 2.66 11.6446C3.41141 8.05 5.83516 5.06242 9.07266 3.53391ZM2.41555 14.0164C2.41555 13.898 2.4179 13.78 2.42145 13.6624C2.9283 13.6728 8.54098 13.7452 14.3269 12.0136C14.6585 12.6627 14.9755 13.3217 15.2659 13.9796C11.0768 15.1598 7.27059 18.5476 5.39481 21.7616C3.5432 19.7094 2.41555 16.9914 2.41555 14.0164ZM6.88953 23.1547C8.09977 20.6812 11.3837 17.4891 16.0552 15.8922C17.6816 20.1184 18.3542 23.6633 18.5265 24.675C14.8017 26.2615 10.3234 25.8262 6.88898 23.1503L6.88953 23.1547ZM20.4739 23.6189C20.3552 22.914 19.7384 19.5228 18.2235 15.3611C21.8537 14.7798 25.043 15.7312 25.4368 15.8563C24.9204 19.0796 23.0705 21.861 20.4717 23.5727L20.4739 23.6189Z" fill="white"/>
</svg>
