<svg width="28" height="28" viewBox="0 0 28 28" fill="none" xmlns="http://www.w3.org/2000/svg">
<path d="M4.6665 5.23852C4.6665 2.34555 7.01205 0 9.90557 0H18.8962C21.7892 0 24.086 2.34555 24.086 5.23852C24.086 7.07109 23.1946 8.68437 21.7673 9.61953C23.1946 10.5547 24.086 12.168 24.086 14C24.086 16.893 21.7892 19.2391 18.8962 19.2391H18.7813C17.4251 19.2391 16.1892 18.725 15.2595 17.8773V22.7063C15.2595 25.6375 12.8532 28 9.93291 28C7.0476 28 4.6665 25.6594 4.6665 22.7609C4.6665 20.9289 5.60658 19.3156 7.03119 18.3805C5.60658 17.3961 4.6665 15.832 4.6665 14C4.6665 12.168 5.60713 10.5547 7.03119 9.61953C5.60713 8.68437 4.6665 7.07109 4.6665 5.23852ZM13.5423 10.4781H9.90557C7.95979 10.4781 6.3826 12.0531 6.3826 14C6.3826 15.9359 7.94721 17.5109 9.88369 17.5219C9.88916 17.5219 9.9001 17.5219 9.90557 17.5219H13.5423V10.4781ZM15.2595 14C15.2595 15.9469 16.8345 17.5219 18.7813 17.5219H18.8962C20.8376 17.5219 22.4181 15.9469 22.4181 14C22.4181 12.0531 20.8376 10.4781 18.8962 10.4781H18.7813C16.8345 10.4781 15.2595 12.0531 15.2595 14ZM9.90557 19.2391C9.9001 19.2391 9.88916 19.2391 9.88369 19.2391C7.94721 19.25 6.3826 20.825 6.3826 22.7609C6.3826 24.7023 7.98057 26.2828 9.93291 26.2828C11.9181 26.2828 13.5423 24.675 13.5423 22.7063V19.2391H9.90557ZM9.90557 1.71609C7.95979 1.71609 6.3826 3.29328 6.3826 5.23852C6.3826 7.18594 7.95979 8.76094 9.90557 8.76094H13.5423V1.71609H9.90557ZM15.2595 8.76094H18.8962C20.8376 8.76094 22.4181 7.18594 22.4181 5.23852C22.4181 3.29328 20.8376 1.71609 18.8962 1.71609H15.2595V8.76094Z" fill="black"/>
</svg>
