<svg width="28" height="28" viewBox="0 0 28 28" fill="none" xmlns="http://www.w3.org/2000/svg">
<path d="M13.8929 7.71098C10.4147 7.71098 7.60927 10.5164 7.60927 13.9946C7.60927 17.4727 10.4147 20.2782 13.8929 20.2782C17.371 20.2782 20.1764 17.4727 20.1764 13.9946C20.1764 10.5164 17.371 7.71098 13.8929 7.71098ZM13.8929 18.0797C11.6452 18.0797 9.80771 16.2477 9.80771 13.9946C9.80771 11.7414 11.6397 9.90942 13.8929 9.90942C16.146 9.90942 17.978 11.7414 17.978 13.9946C17.978 16.2477 16.1405 18.0797 13.8929 18.0797ZM21.8991 7.45395C21.8991 8.2688 21.2429 8.91958 20.4335 8.91958C19.6186 8.91958 18.9679 8.26333 18.9679 7.45395C18.9679 6.64458 19.6241 5.98833 20.4335 5.98833C21.2429 5.98833 21.8991 6.64458 21.8991 7.45395ZM26.0608 8.94145C25.9678 6.97817 25.5194 5.23911 24.0811 3.8063C22.6483 2.37349 20.9093 1.92505 18.946 1.82661C16.9225 1.71177 10.8577 1.71177 8.83427 1.82661C6.87646 1.91958 5.1374 2.36802 3.69912 3.80083C2.26084 5.23364 1.81787 6.9727 1.71943 8.93598C1.60459 10.9594 1.60459 17.0243 1.71943 19.0477C1.8124 21.011 2.26084 22.75 3.69912 24.1828C5.1374 25.6157 6.87099 26.0641 8.83427 26.1625C10.8577 26.2774 16.9225 26.2774 18.946 26.1625C20.9093 26.0696 22.6483 25.6211 24.0811 24.1828C25.5139 22.75 25.9624 21.011 26.0608 19.0477C26.1757 17.0243 26.1757 10.9649 26.0608 8.94145ZM23.4468 21.2188C23.0202 22.2907 22.1944 23.1164 21.1171 23.5485C19.5038 24.1883 15.6757 24.0407 13.8929 24.0407C12.11 24.0407 8.27646 24.1828 6.66865 23.5485C5.59677 23.1219 4.77099 22.2961 4.33896 21.2188C3.69912 19.6055 3.84678 15.7774 3.84678 13.9946C3.84678 12.2118 3.70459 8.37817 4.33896 6.77036C4.76552 5.69848 5.5913 4.8727 6.66865 4.44067C8.28193 3.80083 12.11 3.94848 13.8929 3.94848C15.6757 3.94848 19.5093 3.8063 21.1171 4.44067C22.1889 4.86723 23.0147 5.69302 23.4468 6.77036C24.0866 8.38364 23.9389 12.2118 23.9389 13.9946C23.9389 15.7774 24.0866 19.611 23.4468 21.2188Z" fill="black"/>
</svg>
