<svg width="28" height="28" viewBox="0 0 28 28" fill="none" xmlns="http://www.w3.org/2000/svg">
<path d="M7.23516 26.25H2.15469V9.89297H7.23407L7.23516 26.25ZM4.69165 7.66172C3.06742 7.66172 1.75 6.31641 1.75 4.69219C1.75 3.91187 2.05998 3.16351 2.61175 2.61175C3.16352 2.05998 3.91187 1.75 4.69219 1.75C5.47251 1.75 6.22087 2.05998 6.77264 2.61175C7.3244 3.16351 7.63438 3.91187 7.63438 4.69219C7.63438 6.31641 6.31641 7.66172 4.69274 7.66172H4.69165ZM26.2446 26.25H21.1761V18.2875C21.1761 16.3898 21.1378 13.9563 18.5353 13.9563C15.8944 13.9563 15.4897 16.018 15.4897 18.1508V26.25H10.4158V9.89297H15.2874V12.1242H15.3585C16.0366 10.8391 17.6931 9.48281 20.1644 9.48281C25.305 9.48281 26.2511 12.868 26.2511 17.2648V26.25H26.2446Z" fill="black"/>
</svg>
