<svg width="32" height="32" viewBox="0 0 32 32" fill="none" xmlns="http://www.w3.org/2000/svg">
<path d="M28 4H4C1.79063 4 0 5.79063 0 8V24C0 26.2094 1.79063 28 4 28H28C30.2094 28 32 26.2094 32 24V8C32 5.79063 30.2062 4 28 4ZM4 6H28C29.1025 6 30 6.8975 30 8V10.2506L17.8 19.4006C16.7375 20.1956 15.2606 20.1956 14.1981 19.4006L2 10.25V8C2 6.9 2.8975 6 4 6ZM30 24C30 25.1025 29.1025 26 28 26H4C2.8975 26 2 25.1025 2 24V12.6938L13 21C13.8825 21.6631 14.9412 22.0012 16 22.0012C17.0588 22.0012 18.1187 21.6625 19 21L30 12.6938V24Z" fill="white"/>
</svg>
